<svg width="431px" height="129.2px" xmlns="http://www.w3.org/2000/svg" viewBox="34.5 10.400000000000006 431 129.2" style="background: none;" preserveAspectRatio="xMidYMid"><defs><linearGradient id="editing-outline-gradient" x1="-0.41354545764260087" x2="1.4135454576426008" y1="0.09326335692419985" y2="0.9067366430758002"><stop offset="0" stop-color="#1087b0"></stop><stop offset="1" stop-color="#0a5ee7"></stop></linearGradient><filter id="editing-outline" x="-100%" y="-100%" width="300%" height="300%"><feMorphology in="SourceGraphic" operator="dilate" radius="1" result="outline"></feMorphology><feComposite operator="out" in="outline" in2="SourceAlpha"></feComposite></filter></defs><g filter="url(#editing-outline)"><g transform="translate(100.1749849319458, 105.07999992370605)"><path d="M32.70-32.70L32.70-32.70Q33.54-32.70 34.08-32.16L34.08-32.16L34.08-32.16Q34.62-31.62 34.62-30.72L34.62-30.72L34.62-3.01L34.62-3.01Q34.62 1.98 32.54 5.54L32.54 5.54L32.54 5.54Q30.46 9.09 26.85 10.94L26.85 10.94L26.85 10.94Q23.23 12.80 18.56 12.80L18.56 12.80L18.56 12.80Q16.32 12.80 13.86 12.22L13.86 12.22L13.86 12.22Q11.39 11.65 9.63 10.75L9.63 10.75L9.63 10.75Q7.87 9.86 7.62 8.90L7.62 8.90L7.62 8.90Q7.17 8.45 7.17 7.87L7.17 7.87L7.17 7.87Q7.17 7.23 7.74 6.85L7.74 6.85L7.74 6.85Q8 6.66 8.38 6.66L8.38 6.66L8.38 6.66Q8.77 6.66 9.86 7.10L9.86 7.10L11.20 7.68L11.20 7.68Q15.17 9.22 18.62 9.22L18.62 9.22L18.62 9.22Q24.32 9.22 27.55 5.98L27.55 5.98L27.55 5.98Q30.78 2.75 30.78-2.75L30.78-2.75L30.78-6.72L30.78-6.72Q29.18-3.26 25.73-1.31L25.73-1.31L25.73-1.31Q22.27 0.64 18.50 0.64L18.50 0.64L18.50 0.64Q14.08 0.64 10.53-1.57L10.53-1.57L10.53-1.57Q6.98-3.78 4.93-7.68L4.93-7.68L4.93-7.68Q2.88-11.58 2.88-16.45L2.88-16.45L2.88-16.45Q2.88-21.25 4.93-25.15L4.93-25.15L4.93-25.15Q6.98-29.06 10.53-31.26L10.53-31.26L10.53-31.26Q14.08-33.47 18.43-33.47L18.43-33.47L18.43-33.47Q22.46-33.47 25.82-31.46L25.82-31.46L25.82-31.46Q29.18-29.44 30.78-26.62L30.78-26.62L30.78-30.72L30.78-30.72Q30.78-31.55 31.33-32.13L31.33-32.13L31.33-32.13Q31.87-32.70 32.70-32.70L32.70-32.70ZM18.82-2.94L18.82-2.94Q22.34-2.94 25.12-4.64L25.12-4.64L25.12-4.64Q27.90-6.34 29.47-9.44L29.47-9.44L29.47-9.44Q31.04-12.54 31.04-16.45L31.04-16.45L31.04-16.45Q31.04-20.35 29.47-23.42L29.47-23.42L29.47-23.42Q27.90-26.50 25.12-28.19L25.12-28.19L25.12-28.19Q22.34-29.89 18.82-29.89L18.82-29.89L18.82-29.89Q15.36-29.89 12.58-28.13L12.58-28.13L12.58-28.13Q9.79-26.37 8.22-23.30L8.22-23.30L8.22-23.30Q6.66-20.22 6.66-16.45L6.66-16.45L6.66-16.45Q6.66-12.61 8.22-9.54L8.22-9.54L8.22-9.54Q9.79-6.46 12.58-4.70L12.58-4.70L12.58-4.70Q15.36-2.94 18.82-2.94L18.82-2.94ZM69.12-33.28L69.12-33.28Q69.95-33.28 70.50-32.74L70.50-32.74L70.50-32.74Q71.04-32.19 71.04-31.36L71.04-31.36L71.04-3.14L71.04-3.14Q71.04 1.92 69.06 5.50L69.06 5.50L69.06 5.50Q67.07 9.09 63.55 10.94L63.55 10.94L63.55 10.94Q60.03 12.80 55.62 12.80L55.62 12.80L55.62 12.80Q52.93 12.80 50.59 12.22L50.59 12.22L50.59 12.22Q48.26 11.65 46.72 10.69L46.72 10.69L46.72 10.69Q45.38 9.86 45.38 8.83L45.38 8.83L45.38 8.83Q45.38 8.70 45.50 8.19L45.50 8.19L45.50 8.19Q45.70 7.55 46.14 7.23L46.14 7.23L46.14 7.23Q46.59 6.91 47.10 6.91L47.10 6.91L47.10 6.91Q47.49 6.91 47.87 7.10L47.87 7.10L47.87 7.10Q51.97 9.34 55.68 9.34L55.68 9.34L55.68 9.34Q60.99 9.34 64.10 6.02L64.10 6.02L64.10 6.02Q67.20 2.69 67.20-3.07L67.20-3.07L67.20-5.31L67.20-5.31Q65.60-2.62 62.59-0.99L62.59-0.99L62.59-0.99Q59.58 0.64 56.06 0.64L56.06 0.64L56.06 0.64Q50.50 0.64 47.62-2.69L47.62-2.69L47.62-2.69Q44.74-6.02 44.74-11.71L44.74-11.71L44.74-31.36L44.74-31.36Q44.74-32.19 45.28-32.74L45.28-32.74L45.28-32.74Q45.82-33.28 46.66-33.28L46.66-33.28L46.66-33.28Q47.49-33.28 48.03-32.74L48.03-32.74L48.03-32.74Q48.58-32.19 48.58-31.36L48.58-31.36L48.58-12.29L48.58-12.29Q48.58-7.68 50.59-5.31L50.59-5.31L50.59-5.31Q52.61-2.94 56.90-2.94L56.90-2.94L56.90-2.94Q59.52-2.94 61.92-4.26L61.92-4.26L61.92-4.26Q64.32-5.57 65.76-7.71L65.76-7.71L65.76-7.71Q67.20-9.86 67.20-12.29L67.20-12.29L67.20-31.36L67.20-31.36Q67.20-32.19 67.74-32.74L67.74-32.74L67.74-32.74Q68.29-33.28 69.12-33.28L69.12-33.28ZM107.65-32.70L107.65-32.70Q108.48-32.70 109.02-32.13L109.02-32.13L109.02-32.13Q109.57-31.55 109.57-30.72L109.57-30.72L109.57-1.92L109.57-1.92Q109.57-1.09 109.02-0.54L109.02-0.54L109.02-0.54Q108.48 0 107.65 0L107.65 0L107.65 0Q106.82 0 106.27-0.54L106.27-0.54L106.27-0.54Q105.73-1.09 105.73-1.92L105.73-1.92L105.73-6.21L105.73-6.21Q104.13-3.33 100.93-1.34L100.93-1.34L100.93-1.34Q97.73 0.64 93.95 0.64L93.95 0.64L93.95 0.64Q89.66 0.64 86.24-1.60L86.24-1.60L86.24-1.60Q82.82-3.84 80.86-7.74L80.86-7.74L80.86-7.74Q78.91-11.65 78.91-16.51L78.91-16.51L78.91-16.51Q78.91-21.38 80.90-25.25L80.90-25.25L80.90-25.25Q82.88-29.12 86.30-31.30L86.30-31.30L86.30-31.30Q89.73-33.47 93.89-33.47L93.89-33.47L93.89-33.47Q97.73-33.47 100.93-31.62L100.93-31.62L100.93-31.62Q104.13-29.76 105.73-26.75L105.73-26.75L105.73-30.72L105.73-30.72Q105.73-31.55 106.27-32.13L106.27-32.13L106.27-32.13Q106.82-32.70 107.65-32.70L107.65-32.70ZM94.34-2.94L94.34-2.94Q97.66-2.94 100.32-4.70L100.32-4.70L100.32-4.70Q102.98-6.46 104.48-9.57L104.48-9.57L104.48-9.57Q105.98-12.67 105.98-16.51L105.98-16.51L105.98-16.51Q105.98-20.22 104.48-23.30L104.48-23.30L104.48-23.30Q102.98-26.37 100.32-28.13L100.32-28.13L100.32-28.13Q97.66-29.89 94.34-29.89L94.34-29.89L94.34-29.89Q91.01-29.89 88.35-28.16L88.35-28.16L88.35-28.16Q85.70-26.43 84.19-23.39L84.19-23.39L84.19-23.39Q82.69-20.35 82.69-16.51L82.69-16.51L82.69-16.51Q82.69-12.67 84.16-9.57L84.16-9.57L84.16-9.57Q85.63-6.46 88.29-4.70L88.29-4.70L88.29-4.70Q90.94-2.94 94.34-2.94L94.34-2.94ZM117.76-5.18L117.76-5.18Q117.25-6.02 117.25-6.59L117.25-6.59L117.25-6.59Q117.25-7.42 118.08-7.87L118.08-7.87L118.08-7.87Q118.46-8.26 119.10-8.26L119.10-8.26L119.10-8.26Q119.87-8.26 120.51-7.62L120.51-7.62L120.51-7.62Q124.29-2.62 130.56-2.62L130.56-2.62L130.56-2.62Q133.63-2.62 135.90-4.06L135.90-4.06L135.90-4.06Q138.18-5.50 138.18-8.26L138.18-8.26L138.18-8.26Q138.18-10.94 136.06-12.29L136.06-12.29L136.06-12.29Q133.95-13.63 130.18-14.59L130.18-14.59L130.18-14.59Q124.86-15.94 121.86-18.08L121.86-18.08L121.86-18.08Q118.85-20.22 118.85-24.38L118.85-24.38L118.85-24.38Q118.85-27.01 120.32-29.09L120.32-29.09L120.32-29.09Q121.79-31.17 124.32-32.32L124.32-32.32L124.32-32.32Q126.85-33.47 130.05-33.47L130.05-33.47L130.05-33.47Q132.80-33.47 135.58-32.42L135.58-32.42L135.58-32.42Q138.37-31.36 140.35-29.06L140.35-29.06L140.35-29.06Q140.93-28.61 140.93-27.78L140.93-27.78L140.93-27.78Q140.93-27.01 140.29-26.43L140.29-26.43L140.29-26.43Q139.84-26.05 139.14-26.05L139.14-26.05L139.14-26.05Q138.50-26.05 137.98-26.56L137.98-26.56L137.98-26.56Q136.45-28.29 134.34-29.18L134.34-29.18L134.34-29.18Q132.22-30.08 129.79-30.08L129.79-30.08L129.79-30.08Q126.78-30.08 124.64-28.67L124.64-28.67L124.64-28.67Q122.50-27.26 122.50-24.45L122.50-24.45L122.50-24.45Q122.62-21.89 124.83-20.54L124.83-20.54L124.83-20.54Q127.04-19.20 131.33-18.11L131.33-18.11L131.33-18.11Q134.66-17.28 136.83-16.26L136.83-16.26L136.83-16.26Q139.01-15.23 140.38-13.38L140.38-13.38L140.38-13.38Q141.76-11.52 141.76-8.45L141.76-8.45L141.76-8.45Q141.76-4.29 138.43-1.82L138.43-1.82L138.43-1.82Q135.10 0.64 130.18 0.64L130.18 0.64L130.18 0.64Q122.37 0.64 117.76-5.18L117.76-5.18ZM153.34-1.92L153.34-1.92Q153.34-1.09 152.80-0.54L152.80-0.54L152.80-0.54Q152.26 0 151.42 0L151.42 0L151.42 0Q150.59 0 150.05-0.54L150.05-0.54L150.05-0.54Q149.50-1.09 149.50-1.92L149.50-1.92L149.50-31.36L149.50-31.36Q149.50-32.19 150.05-32.74L150.05-32.74L150.05-32.74Q150.59-33.28 151.42-33.28L151.42-33.28L151.42-33.28Q152.26-33.28 152.80-32.74L152.80-32.74L152.80-32.74Q153.34-32.19 153.34-31.36L153.34-31.36L153.34-1.92ZM151.42-37.57L151.42-37.57Q150.14-37.57 149.44-38.18L149.44-38.18L149.44-38.18Q148.74-38.78 148.74-39.94L148.74-39.94L148.74-40.58L148.74-40.58Q148.74-41.73 149.47-42.34L149.47-42.34L149.47-42.34Q150.21-42.94 151.49-42.94L151.49-42.94L151.49-42.94Q154.05-42.94 154.05-40.58L154.05-40.58L154.05-39.94L154.05-39.94Q154.05-38.78 153.38-38.18L153.38-38.18L153.38-38.18Q152.70-37.57 151.42-37.57L151.42-37.57ZM163.84-14.78L163.84-14.78Q163.01-14.78 162.50-15.33L162.50-15.33L162.50-15.33Q161.98-15.87 161.98-16.70L161.98-16.70L161.98-16.70Q161.98-17.54 162.50-18.05L162.50-18.05L162.50-18.05Q163.01-18.56 163.84-18.56L163.84-18.56L177.66-18.56L177.66-18.56Q178.50-18.56 179.04-17.98L179.04-17.98L179.04-17.98Q179.58-17.41 179.58-16.58L179.58-16.58L179.58-16.58Q179.58-15.81 179.04-15.30L179.04-15.30L179.04-15.30Q178.50-14.78 177.66-14.78L177.66-14.78L163.84-14.78ZM192.51-1.92L192.51-1.92Q192.51-1.09 191.97-0.54L191.97-0.54L191.97-0.54Q191.42 0 190.59 0L190.59 0L190.59 0Q189.76 0 189.22-0.54L189.22-0.54L189.22-0.54Q188.67-1.09 188.67-1.92L188.67-1.92L188.67-45.44L188.67-45.44Q188.67-46.27 189.22-46.82L189.22-46.82L189.22-46.82Q189.76-47.36 190.59-47.36L190.59-47.36L190.59-47.36Q191.42-47.36 191.97-46.82L191.97-46.82L191.97-46.82Q192.51-46.27 192.51-45.44L192.51-45.44L192.51-1.92ZM206.72-1.92L206.72-1.92Q206.72-1.09 206.18-0.54L206.18-0.54L206.18-0.54Q205.63 0 204.80 0L204.80 0L204.80 0Q203.97 0 203.42-0.54L203.42-0.54L203.42-0.54Q202.88-1.09 202.88-1.92L202.88-1.92L202.88-31.36L202.88-31.36Q202.88-32.19 203.42-32.74L203.42-32.74L203.42-32.74Q203.97-33.28 204.80-33.28L204.80-33.28L204.80-33.28Q205.63-33.28 206.18-32.74L206.18-32.74L206.18-32.74Q206.72-32.19 206.72-31.36L206.72-31.36L206.72-1.92ZM204.80-37.57L204.80-37.57Q203.52-37.57 202.82-38.18L202.82-38.18L202.82-38.18Q202.11-38.78 202.11-39.94L202.11-39.94L202.11-40.58L202.11-40.58Q202.11-41.73 202.85-42.34L202.85-42.34L202.85-42.34Q203.58-42.94 204.86-42.94L204.86-42.94L204.86-42.94Q207.42-42.94 207.42-40.58L207.42-40.58L207.42-39.94L207.42-39.94Q207.42-38.78 206.75-38.18L206.75-38.18L206.75-38.18Q206.08-37.57 204.80-37.57L204.80-37.57ZM232.13-33.47L232.13-33.47Q238.08-33.47 240.86-29.98L240.86-29.98L240.86-29.98Q243.65-26.50 243.65-20.74L243.65-20.74L243.65-1.92L243.65-1.92Q243.65-1.09 243.07-0.54L243.07-0.54L243.07-0.54Q242.50 0 241.73 0L241.73 0L241.73 0Q240.90 0 240.35-0.54L240.35-0.54L240.35-0.54Q239.81-1.09 239.81-1.92L239.81-1.92L239.81-20.54L239.81-20.54Q239.81-24.70 237.73-27.30L237.73-27.30L237.73-27.30Q235.65-29.89 231.30-29.89L231.30-29.89L231.30-29.89Q228.54-29.89 226.08-28.61L226.08-28.61L226.08-28.61Q223.62-27.33 222.08-25.18L222.08-25.18L222.08-25.18Q220.54-23.04 220.54-20.54L220.54-20.54L220.54-1.92L220.54-1.92Q220.54-1.09 220-0.54L220-0.54L220-0.54Q219.46 0 218.62 0L218.62 0L218.62 0Q217.79 0 217.25-0.54L217.25-0.54L217.25-0.54Q216.70-1.09 216.70-1.92L216.70-1.92L216.70-30.59L216.70-30.59Q216.70-31.42 217.25-31.97L217.25-31.97L217.25-31.97Q217.79-32.51 218.62-32.51L218.62-32.51L218.62-32.51Q219.46-32.51 220-31.97L220-31.97L220-31.97Q220.54-31.42 220.54-30.59L220.54-30.59L220.54-27.07L220.54-27.07Q222.27-29.82 225.50-31.65L225.50-31.65L225.50-31.65Q228.74-33.47 232.13-33.47L232.13-33.47ZM249.15 12.67L249.15 12.67Q248.38 12.67 247.87 12.16L247.87 12.16L247.87 12.16Q247.36 11.65 247.36 10.88L247.36 10.88L247.36 10.62L247.36 10.62Q247.36 9.92 247.81 9.44L247.81 9.44L247.81 9.44Q248.26 8.96 249.02 8.83L249.02 8.83L249.02 8.83Q251.39 8.38 252.96 6.75L252.96 6.75L252.96 6.75Q254.53 5.12 254.53 2.37L254.53 2.37L254.53-30.66L254.53-30.66Q254.53-31.49 255.07-32.03L255.07-32.03L255.07-32.03Q255.62-32.58 256.45-32.58L256.45-32.58L256.45-32.58Q257.28-32.58 257.82-32.03L257.82-32.03L257.82-32.03Q258.37-31.49 258.37-30.66L258.37-30.66L258.37 2.94L258.37 2.94Q258.37 5.89 256.99 8.10L256.99 8.10L256.99 8.10Q255.62 10.30 253.47 11.49L253.47 11.49L253.47 11.49Q251.33 12.67 249.15 12.67L249.15 12.67ZM256.45-37.63L256.45-37.63Q255.17-37.63 254.46-38.24L254.46-38.24L254.46-38.24Q253.76-38.85 253.76-40L253.76-40L253.76-40.64L253.76-40.64Q253.76-41.79 254.50-42.40L254.50-42.40L254.50-42.40Q255.23-43.01 256.51-43.01L256.51-43.01L256.51-43.01Q259.07-43.01 259.07-40.64L259.07-40.64L259.07-40L259.07-40Q259.07-38.85 258.40-38.24L258.40-38.24L258.40-38.24Q257.73-37.63 256.45-37.63L256.45-37.63ZM296.77-18.24L296.77-18.24Q296.77-17.47 296.19-16.93L296.19-16.93L296.19-16.93Q295.62-16.38 294.85-16.38L294.85-16.38L270.66-16.38L270.66-16.38Q270.66-12.54 272.22-9.50L272.22-9.50L272.22-9.50Q273.79-6.46 276.70-4.70L276.70-4.70L276.70-4.70Q279.62-2.94 283.58-2.94L283.58-2.94L283.58-2.94Q286.66-2.94 289.09-4.22L289.09-4.22L289.09-4.22Q291.52-5.50 292.99-7.49L292.99-7.49L292.99-7.49Q293.70-8.06 294.34-8.06L294.34-8.06L294.34-8.06Q294.98-8.06 295.49-7.55L295.49-7.55L295.49-7.55Q296.00-7.04 296.00-6.40L296.00-6.40L296.00-6.40Q296.00-5.70 295.36-5.06L295.36-5.06L295.36-5.06Q293.31-2.56 290.21-0.96L290.21-0.96L290.21-0.96Q287.10 0.64 283.65 0.64L283.65 0.64L283.65 0.64Q278.72 0.64 274.94-1.47L274.94-1.47L274.94-1.47Q271.17-3.58 269.06-7.39L269.06-7.39L269.06-7.39Q266.94-11.20 266.94-16.19L266.94-16.19L266.94-16.19Q266.94-21.44 269.02-25.38L269.02-25.38L269.02-25.38Q271.10-29.31 274.56-31.39L274.56-31.39L274.56-31.39Q278.02-33.47 281.92-33.47L281.92-33.47L281.92-33.47Q285.76-33.47 289.12-31.68L289.12-31.68L289.12-31.68Q292.48-29.89 294.59-26.43L294.59-26.43L294.59-26.43Q296.70-22.98 296.77-18.24L296.77-18.24ZM281.92-29.76L281.92-29.76Q278.21-29.76 275.04-27.20L275.04-27.20L275.04-27.20Q271.87-24.64 270.98-19.84L270.98-19.84L292.80-19.84L292.80-20.35L292.80-20.35Q292.48-23.23 290.88-25.38L290.88-25.38L290.88-25.38Q289.28-27.52 286.88-28.64L286.88-28.64L286.88-28.64Q284.48-29.76 281.92-29.76L281.92-29.76Z" fill="url(#editing-outline-gradient)"></path></g></g><style>text {
  font-size: 64px;
  font-family: Arial Black;
  dominant-baseline: central;
  text-anchor: middle;
}</style></svg>